<?xml version="1.0" encoding="UTF-8"?><svg id="Layer_1" xmlns="http://www.w3.org/2000/svg" viewBox="0 0 75.39 23.91"><defs><style>.cls-1{fill:#231f20;}</style></defs><path class="cls-1" d="M27.48,21.86c-1.29,1.26-3.09,2.05-5.05,2.05-3.97,0-7.19-3.22-7.19-7.22s3.22-7.22,7.19-7.22c1.96,0,3.75,.79,5.05,2.05V0h3.72V23.47h-3.72v-1.61Zm-7.03-2.55c.66,.69,1.55,1.07,2.49,1.07s1.86-.38,2.52-1.07c.66-.69,1.04-1.64,1.04-2.62s-.38-1.89-1.04-2.62c-.66-.69-1.58-1.07-2.52-1.07s-1.83,.38-2.49,1.07c-.66,.72-1.04,1.64-1.04,2.62s.38,1.92,1.04,2.62Z"/><path class="cls-1" d="M44.24,21.38c-1.29,1.54-3.28,2.52-5.46,2.52-3.97,0-7.22-3.25-7.22-7.22s3.25-7.22,7.22-7.22,7.22,3.22,7.22,7.22c0,.44-.03,.85-.13,1.29h-10.16c.19,.5,.44,.95,.79,1.32,.66,.73,1.51,1.1,2.43,1.1,.85,0,1.7-.38,2.33-1.01l2.96,1.99Zm-2.05-5.8c-.16-.57-.44-1.1-.85-1.54-.63-.69-1.51-1.07-2.4-1.07s-1.77,.38-2.43,1.07c-.38,.44-.66,.98-.85,1.54h6.53Z"/><path class="cls-1" d="M56.24,23.91l-4.54-5.52-.92,.95v4.57h-4.42V.44h4.42V14.7l4.04-4.38h5.39l-5.52,5.68,6.72,7.92h-5.17Z"/><path class="cls-1" d="M75.39,23.15v.76h-14.24v-.76l6.95-13.65h.84l6.45,13.65Zm-4.61-2.55l-2.35-5.02-2.56,5.02h4.91Z"/><path class="cls-1" d="M15.26,16.61c0,4.06-3.39,7.29-7.65,7.29S0,20.68,0,16.61s3.39-7.3,7.62-7.3,7.65,3.26,7.65,7.3Zm-4.03-.03c0-.99-.35-1.92-1.02-2.62-.7-.74-1.57-1.12-2.56-1.12-.93,0-1.86,.38-2.5,1.12-.74,.7-1.09,1.66-1.09,2.66s.35,1.95,1.09,2.69c.64,.7,1.57,1.09,2.5,1.09,.99,0,1.86-.38,2.56-1.09,.67-.74,1.02-1.7,1.02-2.72Z"/></svg>